<?xml version="1.0" encoding="utf-8"?>
<!-- Generator: Adobe Illustrator 16.0.0, SVG Export Plug-In . SVG Version: 6.00 Build 0)  -->
<!DOCTYPE svg PUBLIC "-//W3C//DTD SVG 1.1//EN" "http://www.w3.org/Graphics/SVG/1.1/DTD/svg11.dtd">
<svg version="1.1" id="Layer_1" xmlns="http://www.w3.org/2000/svg" xmlns:xlink="http://www.w3.org/1999/xlink" x="0px" y="0px"
	 width="60px" height="60px" viewBox="0 0 60 60" enable-background="new 0 0 60 60" xml:space="preserve">
<g>
	<circle fill="none" stroke="#662F90" stroke-width="2" stroke-miterlimit="10" cx="30" cy="30.001" r="28.896"/>
	<circle fill="#8CC640" cx="30" cy="30.001" r="26.369"/>
	<g>
		<path fill="#662F90" d="M25.759,24.861c3.356,0,6.086-2.73,6.086-6.087s-2.73-6.087-6.086-6.087s-6.086,2.73-6.086,6.087
			S22.403,24.861,25.759,24.861L25.759,24.861z M25.759,14.538c2.336,0,4.236,1.9,4.236,4.236s-1.9,4.236-4.236,4.236
			c-2.335,0-4.236-1.9-4.236-4.236S23.424,14.538,25.759,14.538L25.759,14.538z M25.759,14.538"/>
		<path fill="#662F90" d="M44.217,30.464c-0.199-0.257-0.388-0.5-0.469-0.695c-0.09-0.216-0.131-0.534-0.176-0.87
			c-0.088-0.664-0.198-1.49-0.795-2.088c-0.598-0.598-1.425-0.707-2.088-0.795c-0.338-0.045-0.655-0.087-0.871-0.177
			c-0.195-0.081-0.438-0.27-0.695-0.469c-0.537-0.417-1.207-0.937-2.083-0.937c-0.878,0-1.546,0.52-2.083,0.937
			c-0.22,0.17-0.428,0.331-0.605,0.425c-0.011,0-0.021-0.001-0.031-0.001H17.197c-1.295,0-2.35,1.055-2.35,2.352v13.537
			c0,1.297,1.055,2.352,2.35,2.352h15.497v2.354c0,0.364,0.213,0.693,0.545,0.844c0.331,0.149,0.72,0.091,0.992-0.149l2.81-2.476
			l2.81,2.476c0.172,0.151,0.391,0.231,0.611,0.231c0.129,0,0.259-0.027,0.381-0.082c0.332-0.15,0.544-0.479,0.544-0.844v-7.42
			c0.488-0.103,0.991-0.283,1.392-0.684c0.597-0.597,0.707-1.424,0.795-2.088c0.045-0.337,0.086-0.654,0.176-0.87
			c0.081-0.195,0.27-0.438,0.469-0.695c0.417-0.538,0.936-1.207,0.936-2.083C45.152,31.671,44.634,31.001,44.217,30.464
			L44.217,30.464z M17.198,42.184c-0.276,0-0.501-0.225-0.501-0.501V28.146c0-0.276,0.225-0.501,0.5-0.501h6.205l1.377,1.726
			l-1.417,8.431c-0.046,0.273,0.034,0.553,0.216,0.762l1.486,1.701c0.175,0.201,0.429,0.316,0.696,0.316s0.521-0.115,0.697-0.316
			l1.486-1.701c0.183-0.209,0.262-0.488,0.216-0.762L26.74,29.37l1.377-1.726h2.662c-0.16,0.421-0.22,0.865-0.271,1.254
			c-0.044,0.337-0.086,0.654-0.176,0.87c-0.081,0.195-0.269,0.438-0.469,0.695c-0.417,0.537-0.937,1.207-0.937,2.084
			c0,0.876,0.52,1.546,0.937,2.083c0.2,0.258,0.388,0.5,0.469,0.695c0.089,0.216,0.131,0.533,0.176,0.87
			c0.088,0.664,0.198,1.49,0.795,2.088c0.4,0.4,0.902,0.581,1.391,0.684v3.216H17.198z M37.651,42.679
			c-0.35-0.308-0.874-0.308-1.224,0l-1.884,1.661v-4.923c0.13,0.088,0.269,0.195,0.412,0.307c0.538,0.418,1.206,0.938,2.084,0.938
			c0.876,0,1.546-0.52,2.083-0.938c0.145-0.111,0.283-0.219,0.412-0.307v4.923L37.651,42.679z M42.755,33.497
			c-0.265,0.342-0.54,0.695-0.716,1.12c-0.183,0.44-0.246,0.916-0.301,1.336c-0.055,0.407-0.115,0.869-0.27,1.022
			c-0.154,0.154-0.615,0.215-1.023,0.27c-0.42,0.056-0.896,0.119-1.336,0.301c-0.424,0.177-0.777,0.451-1.12,0.717
			c-0.348,0.269-0.706,0.548-0.949,0.548c-0.244,0-0.603-0.279-0.95-0.548c-0.342-0.266-0.695-0.54-1.12-0.717
			c-0.44-0.183-0.915-0.245-1.335-0.301c-0.408-0.055-0.869-0.115-1.023-0.27c-0.154-0.153-0.215-0.615-0.27-1.022
			c-0.056-0.42-0.119-0.896-0.301-1.336c-0.176-0.425-0.451-0.778-0.717-1.12c-0.269-0.348-0.547-0.706-0.547-0.949
			c0-0.244,0.278-0.604,0.547-0.95c0.266-0.342,0.541-0.695,0.717-1.121c0.182-0.439,0.245-0.915,0.301-1.335
			c0.055-0.407,0.115-0.868,0.27-1.022s0.615-0.216,1.023-0.27c0.419-0.056,0.895-0.118,1.335-0.302
			c0.425-0.176,0.778-0.45,1.12-0.716c0.348-0.27,0.707-0.548,0.95-0.548s0.602,0.278,0.949,0.548
			c0.343,0.266,0.696,0.54,1.12,0.716c0.44,0.184,0.916,0.246,1.336,0.302c0.408,0.054,0.869,0.115,1.023,0.269
			c0.154,0.155,0.215,0.616,0.27,1.023c0.055,0.42,0.118,0.896,0.301,1.335c0.176,0.426,0.451,0.779,0.716,1.121
			c0.269,0.347,0.548,0.706,0.548,0.95C43.303,32.791,43.023,33.149,42.755,33.497L42.755,33.497z M42.755,33.497"/>
		<path fill="#FFFFFF" d="M37.04,28.681c-2.132,0-3.867,1.734-3.867,3.867c0,2.132,1.735,3.866,3.867,3.866s3.866-1.734,3.866-3.866
			C40.906,30.415,39.172,28.681,37.04,28.681L37.04,28.681z M37.04,34.563c-1.112,0-2.017-0.904-2.017-2.016
			c0-1.112,0.904-2.018,2.017-2.018s2.017,0.905,2.017,2.018C39.057,33.659,38.152,34.563,37.04,34.563L37.04,34.563z M37.04,34.563
			"/>
	</g>
</g>
</svg>
