<?xml version="1.0" encoding="utf-8"?>
<!-- Generator: Adobe Illustrator 16.0.0, SVG Export Plug-In . SVG Version: 6.00 Build 0)  -->
<!DOCTYPE svg PUBLIC "-//W3C//DTD SVG 1.1//EN" "http://www.w3.org/Graphics/SVG/1.1/DTD/svg11.dtd">
<svg version="1.1" id="Layer_1" xmlns="http://www.w3.org/2000/svg" xmlns:xlink="http://www.w3.org/1999/xlink" x="0px" y="0px"
	 width="60px" height="60px" viewBox="0 0 60 60" enable-background="new 0 0 60 60" xml:space="preserve">
<g>
	<circle fill="none" stroke="#662F90" stroke-width="2" stroke-miterlimit="10" cx="30" cy="30" r="29.103"/>
	<circle fill="#8CC640" cx="30" cy="30" r="26.558"/>
	<g>
		<path fill="#FFFFFF" d="M34.674,15.458H20.132c-1.271,0-2.327,0.918-2.549,2.125c-1.207,0.223-2.125,1.279-2.125,2.55v21.813
			c0,1.432,1.165,2.598,2.597,2.598h14.542c1.271,0,2.326-0.92,2.549-2.125c1.208-0.225,2.126-1.279,2.126-2.551V18.054
			C37.271,16.623,36.105,15.458,34.674,15.458L34.674,15.458z M34.154,41.945c0,0.859-0.698,1.559-1.558,1.559H18.054
			c-0.859,0-1.558-0.699-1.558-1.559V20.132c0-0.859,0.699-1.559,1.558-1.559h14.542c0.859,0,1.558,0.699,1.558,1.559V41.945z
			 M36.232,39.867c0,0.678-0.436,1.248-1.039,1.463V20.132c0-1.433-1.164-2.598-2.597-2.598H18.669
			c0.215-0.603,0.786-1.039,1.462-1.039h14.542c0.859,0,1.559,0.699,1.559,1.559V39.867z M36.232,39.867"/>
		<path fill="#662F90" d="M25.326,24.806c1.432,0,2.597-1.165,2.597-2.597c0-1.433-1.165-2.598-2.597-2.598
			c-1.432,0-2.597,1.165-2.597,2.598C22.729,23.641,23.894,24.806,25.326,24.806L25.326,24.806z M25.326,20.651
			c0.859,0,1.558,0.699,1.558,1.559c0,0.858-0.699,1.558-1.558,1.558s-1.559-0.699-1.559-1.558
			C23.767,21.35,24.467,20.651,25.326,20.651L25.326,20.651z M25.326,20.651"/>
		<rect x="18.574" y="25.845" fill="#662F90" width="13.503" height="1.038"/>
		<rect x="18.574" y="27.922" fill="#662F90" width="13.503" height="1.039"/>
		<rect x="20.651" y="30" fill="#662F90" width="11.426" height="1.04"/>
		<rect x="20.651" y="32.076" fill="#662F90" width="11.426" height="1.039"/>
		<rect x="20.651" y="34.154" fill="#662F90" width="11.426" height="1.039"/>
		<rect x="20.651" y="36.232" fill="#662F90" width="11.426" height="1.039"/>
		<rect x="18.574" y="39.348" fill="#662F90" width="4.155" height="1.039"/>
		<rect x="27.922" y="39.348" fill="#662F90" width="4.155" height="1.039"/>
		<rect x="18.574" y="30" fill="#662F90" width="1.039" height="1.04"/>
		<rect x="18.574" y="32.076" fill="#662F90" width="1.039" height="1.039"/>
		<rect x="18.574" y="34.154" fill="#662F90" width="1.039" height="1.039"/>
		<rect x="18.574" y="36.232" fill="#662F90" width="1.039" height="1.039"/>
		<path fill="#662F90" d="M44.542,30.519v-4.154c0-0.859-0.698-1.559-1.558-1.559h-0.52v-0.52c0-0.287-0.232-0.52-0.52-0.52h-2.078
			c-0.286,0-0.519,0.232-0.519,0.52v18.698c0,0.137,0.055,0.27,0.152,0.367l1.038,1.039c0.102,0.1,0.234,0.152,0.367,0.152
			s0.266-0.053,0.367-0.152l1.039-1.039c0.098-0.098,0.152-0.23,0.152-0.367V25.845h0.52c0.286,0,0.52,0.233,0.52,0.52v4.031
			l-0.465,0.93c-0.073,0.146-0.073,0.318,0,0.465l0.465,0.928v1.436h1.038v-1.559c0-0.08-0.019-0.16-0.054-0.232l-0.404-0.807
			l0.402-0.805C44.523,30.679,44.542,30.6,44.542,30.519L44.542,30.519z M41.426,24.806v8.309h-1.039v-8.309H41.426z M40.906,43.289
			l-0.52-0.52v-8.615h1.039v8.615L40.906,43.289z M40.906,43.289"/>
	</g>
</g>
</svg>
