<?xml version="1.0" encoding="utf-8"?>
<!-- Generator: Adobe Illustrator 16.0.0, SVG Export Plug-In . SVG Version: 6.00 Build 0)  -->
<!DOCTYPE svg PUBLIC "-//W3C//DTD SVG 1.1//EN" "http://www.w3.org/Graphics/SVG/1.1/DTD/svg11.dtd">
<svg version="1.1" id="Layer_1" xmlns="http://www.w3.org/2000/svg" xmlns:xlink="http://www.w3.org/1999/xlink" x="0px" y="0px"
	 width="60px" height="60px" viewBox="0 0 60 60" enable-background="new 0 0 60 60" xml:space="preserve">
<g>
	<circle fill="none" stroke="#662F90" stroke-width="2" stroke-miterlimit="10" cx="30" cy="30.088" r="28.914"/>
	<circle fill="#8CC640" cx="29.999" cy="30.088" r="26.386"/>
	<g>
		<path fill="#662F90" d="M33.069,27.887h8.198c0.403,0,0.731-0.328,0.731-0.734c0-0.405-0.328-0.733-0.731-0.733h-8.198
			c-0.405,0-0.733,0.329-0.733,0.733C32.336,27.56,32.664,27.887,33.069,27.887L33.069,27.887z M33.069,27.887"/>
		<path fill="#662F90" d="M33.069,30.822h8.198c0.403,0,0.731-0.33,0.731-0.734c0-0.406-0.328-0.734-0.731-0.734h-8.198
			c-0.405,0-0.733,0.328-0.733,0.734C32.336,30.492,32.664,30.822,33.069,30.822L33.069,30.822z M33.069,30.822"/>
		<path fill="#662F90" d="M33.069,33.754h8.198c0.403,0,0.731-0.326,0.731-0.732s-0.328-0.732-0.731-0.732h-8.198
			c-0.405,0-0.733,0.326-0.733,0.732S32.664,33.754,33.069,33.754L33.069,33.754z M33.069,33.754"/>
		<path fill="#662F90" d="M45.108,19.526H14.89c-0.608,0-1.101,0.493-1.101,1.1v18.923c0,0.607,0.493,1.1,1.101,1.1h30.218
			c0.608,0,1.102-0.492,1.102-1.1V20.626C46.21,20.019,45.717,19.526,45.108,19.526L45.108,19.526z M44.009,38.449H15.99V21.726
			h28.019V38.449z M44.009,38.449"/>
		<path fill="#FFFFFF" d="M20.652,30.863c-1.062,0.74-1.758,1.969-1.758,3.357v1.662c0,0.404,0.328,0.732,0.733,0.732h6.716
			c0.404,0,0.733-0.328,0.733-0.732v-1.662c0-1.389-0.696-2.617-1.758-3.357c1.062-0.74,1.758-1.969,1.758-3.358
			c0-2.256-1.836-4.091-4.091-4.091c-2.256,0-4.091,1.834-4.091,4.091C18.894,28.895,19.59,30.123,20.652,30.863L20.652,30.863z
			 M25.61,34.221v0.928h-5.25v-0.928c0-1.447,1.177-2.625,2.625-2.625C24.432,31.596,25.61,32.773,25.61,34.221L25.61,34.221z
			 M22.985,24.88c1.447,0,2.625,1.178,2.625,2.625s-1.178,2.624-2.625,2.624c-1.448,0-2.625-1.177-2.625-2.624
			S21.537,24.88,22.985,24.88L22.985,24.88z M22.985,24.88"/>
	</g>
</g>
</svg>
