<?xml version="1.0" encoding="utf-8"?>
<!-- Generator: Adobe Illustrator 16.0.0, SVG Export Plug-In . SVG Version: 6.00 Build 0)  -->
<!DOCTYPE svg PUBLIC "-//W3C//DTD SVG 1.1//EN" "http://www.w3.org/Graphics/SVG/1.1/DTD/svg11.dtd">
<svg version="1.1" id="Layer_1" xmlns="http://www.w3.org/2000/svg" xmlns:xlink="http://www.w3.org/1999/xlink" x="0px" y="0px"
	 width="60px" height="60px" viewBox="0 0 60 60" enable-background="new 0 0 60 60" xml:space="preserve">
<g>
	<circle fill="none" stroke="#662F90" stroke-width="2" stroke-miterlimit="10" cx="30" cy="30.001" r="29.092"/>
	<circle fill="#8CC640" cx="30" cy="30.001" r="26.549"/>
	<g>
		<path fill="#FFFFFF" d="M26.781,19.738v-3.366c0-2.558-2.081-4.638-4.637-4.638H20.62c-2.558,0-4.638,2.08-4.638,4.638v27.257
			c0,2.557,2.081,4.638,4.638,4.638h23.399V19.738H26.781z M17.253,16.372c0-1.856,1.51-3.366,3.367-3.366h1.524
			c1.856,0,3.366,1.51,3.366,3.366v24.072c-0.846-0.895-2.042-1.453-3.366-1.453H20.62c-1.325,0-2.521,0.559-3.367,1.453V16.372z
			 M20.62,46.995c-1.857,0-3.367-1.51-3.367-3.366s1.51-3.366,3.367-3.366h1.524c0.562,0,1.091,0.139,1.557,0.383v2.983
			c0,0.808-0.829,1.464-1.847,1.464h-0.946c-1.019,0-1.847-0.656-1.847-1.464s0.828-1.465,1.847-1.465h0.328
			c0.188,0,0.339,0.152,0.339,0.34c0,0.187-0.152,0.338-0.339,0.338h-0.974v1.271h0.974c0.888,0,1.61-0.722,1.61-1.609
			c0-0.889-0.722-1.61-1.61-1.61h-0.328c-1.719,0-3.118,1.227-3.118,2.735s1.398,2.735,3.118,2.735h0.946
			c1.719,0,3.118-1.227,3.118-2.735v-1.821c0.339,0.525,0.538,1.15,0.538,1.821c0,1.856-1.51,3.366-3.366,3.366H20.62L20.62,46.995z
			 M42.747,46.995H25.329c0.893-0.846,1.453-2.042,1.453-3.366v-22.62h15.966V46.995z M42.747,46.995"/>
		<rect x="39.203" y="32.969" fill="#662F90" width="1.271" height="12.289"/>
		<rect x="39.203" y="22.746" fill="#662F90" width="1.271" height="7.935"/>
		<rect x="35.446" y="41.613" fill="#662F90" width="1.271" height="3.645"/>
		<rect x="35.446" y="26.698" fill="#662F90" width="1.271" height="12.542"/>
		<rect x="35.446" y="22.746" fill="#662F90" width="1.271" height="2.257"/>
		<rect x="31.688" y="34.579" fill="#662F90" width="1.271" height="10.679"/>
		<rect x="31.688" y="22.746" fill="#662F90" width="1.271" height="10.223"/>
		<rect x="27.931" y="29.155" fill="#662F90" width="1.272" height="16.103"/>
		<rect x="27.931" y="22.746" fill="#662F90" width="1.272" height="4.714"/>
	</g>
</g>
</svg>
