<?xml version="1.0" encoding="utf-8"?>
<!-- Generator: Adobe Illustrator 16.0.0, SVG Export Plug-In . SVG Version: 6.00 Build 0)  -->
<!DOCTYPE svg PUBLIC "-//W3C//DTD SVG 1.1//EN" "http://www.w3.org/Graphics/SVG/1.1/DTD/svg11.dtd">
<svg version="1.1" id="Layer_1" xmlns="http://www.w3.org/2000/svg" xmlns:xlink="http://www.w3.org/1999/xlink" x="0px" y="0px"
	 width="60px" height="60px" viewBox="0 0 60 60" enable-background="new 0 0 60 60" xml:space="preserve">
<circle fill="none" stroke="#662F90" stroke-width="2" stroke-miterlimit="10" cx="29.999" cy="30" r="29.164"/>
<circle fill="#8CC640" cx="29.999" cy="30" r="26.615"/>
<g>
	<path fill-rule="evenodd" clip-rule="evenodd" fill="#662F90" d="M30.292,35.132c0.007,0.131,0.019,0.24,0.019,0.35
		c0,2.702-0.002,5.403-0.002,8.105c0,1.252-0.009,2.503,0.008,3.754c0.013,0.964,0.708,1.678,1.612,1.697
		c1.008,0.022,1.748-0.714,1.748-1.751c0.002-6.568,0.002-13.137,0.002-19.706c0-0.134,0-0.269,0-0.403
		c0.131,0.137,0.188,0.272,0.236,0.411c0.445,1.275,0.615,2.602,0.65,3.939c0.035,1.336-0.014,2.675-0.033,4.013
		c-0.011,0.641,0.429,1.135,1.049,1.16c0.621,0.024,1.111-0.433,1.146-1.065c0.112-2.067,0.133-4.136-0.15-6.193
		c-0.19-1.381-0.494-2.729-1.229-3.938c-0.727-1.194-1.729-1.886-3.203-1.833c-1.472,0.051-2.949,0.036-4.423,0.003
		c-1.186-0.027-2.071,0.475-2.771,1.383c-0.711,0.924-1.064,2.003-1.309,3.121c-0.475,2.171-0.494,4.374-0.419,6.581
		c0.009,0.248,0.036,0.495,0.044,0.742c0.023,0.762,0.471,1.226,1.162,1.197c0.665-0.027,1.051-0.555,1.02-1.323
		c-0.092-2.267-0.154-4.534,0.346-6.769c0.11-0.492,0.281-0.97,0.422-1.454c0.035,0.01,0.068,0.019,0.103,0.028
		c0,0.148,0,0.296,0,0.444c0,6.557,0,13.113,0,19.668c0,0.806,0.448,1.435,1.17,1.67c1.028,0.335,2.219-0.402,2.208-1.778
		c-0.03-3.792-0.012-7.584-0.013-11.376c-0.001-0.221,0-0.441,0-0.678C29.913,35.132,30.093,35.132,30.292,35.132z M29.981,22.927
		c1.666,0.016,3.076-1.362,3.092-3.02c0.014-1.694-1.344-3.083-3.04-3.109c-1.685-0.026-3.088,1.346-3.106,3.039
		C26.907,21.518,28.285,22.911,29.981,22.927z M25.398,19.87c0-1.939,0-3.845,0-5.662c0.455,1.216,0.941,2.513,1.457,3.892
		c0.564-0.893,1.273-1.435,2.185-1.721c0.082-0.025,0.153-0.227,0.154-0.347c0.012-1.363,0.008-2.727,0.01-4.09
		c0-0.294,0-0.587,0-0.883c-0.54,0-1.027,0-1.577,0c0.05,1.937,0.101,3.847,0.153,5.805c-0.045-0.093-0.074-0.143-0.094-0.195
		c-0.684-1.776-1.364-3.555-2.056-5.327c-0.048-0.123-0.188-0.288-0.295-0.295c-0.453-0.033-0.91-0.015-1.378-0.015
		c0,2.967,0,5.896,0,8.838C24.449,19.87,24.917,19.87,25.398,19.87z M23.315,19.866c0-2.958,0-5.886,0-8.804
		c-0.578,0-1.128,0-1.673,0c0,2.948,0,5.867,0,8.804C22.205,19.866,22.746,19.866,23.315,19.866z M32.3,14.923
		c0,0.479,0,0.919,0,1.41c0.271,0,0.521,0,0.79,0c0,0.211-0.001,0.371,0.001,0.531c0.004,0.396-0.057,0.806,0.031,1.183
		c0.145,0.614,0.389,1.205,0.603,1.843c0.149-0.03,0.363-0.08,0.581-0.113c0.302-0.044,0.393-0.202,0.383-0.507
		c-0.023-0.755-0.005-1.511-0.004-2.265c0-0.688,0-1.377,0-2.082C33.864,14.923,33.101,14.923,32.3,14.923z"/>
	<path fill-rule="evenodd" clip-rule="evenodd" fill="#662F90" d="M43.053,19.882c-2.662,0-5.324,0-8.014,0c0-2.952,0-5.88,0-8.829
		c0.552,0,1.091,0,1.673,0c0,2.428,0,4.861,0,7.33c0.788,0,1.537,0,2.328,0c0-2.414,0-4.86,0-7.329c1.299,0,2.557,0,3.84,0
		c0,0.478,0,0.953,0,1.471c-0.681,0-1.355,0-2.059,0c0,0.688,0,1.335,0,2.026c0.557,0,1.098,0.011,1.641-0.005
		c0.252-0.007,0.359,0.062,0.344,0.331c-0.019,0.367-0.004,0.737-0.004,1.14c-0.695,0-1.335,0-1.989,0c0,0.798,0,1.561,0,2.378
		c0.761,0,1.5,0,2.24,0C43.053,18.891,43.053,19.386,43.053,19.882z"/>
	<path fill-rule="evenodd" clip-rule="evenodd" fill="#662F90" d="M20.441,10.956c0.007,0.011,0.011,0.027,0.021,0.03
		c0.786,0.272,0.787,0.272,0.627,1.099c-0.04,0.205-0.087,0.41-0.129,0.606c-0.342-0.08-0.667-0.196-1-0.226
		c-0.845-0.076-1.403,0.517-1.142,1.227c0.09,0.247,0.319,0.468,0.533,0.639c0.375,0.301,0.81,0.527,1.18,0.832
		c0.969,0.802,1.277,1.96,0.864,3.106c-0.36,1-1.363,1.697-2.563,1.671c-0.631-0.015-1.259-0.183-1.888-0.281c0-0.1,0-0.199,0-0.298
		c0.085-0.395,0.171-0.79,0.261-1.205c0.123,0.039,0.239,0.077,0.355,0.111c0.513,0.156,1.029,0.274,1.566,0.13
		c0.467-0.127,0.725-0.469,0.724-0.949c0-0.484-0.277-0.799-0.634-1.073c-0.5-0.383-1.045-0.722-1.479-1.17
		c-1.361-1.405-0.633-3.828,1.347-4.178c0.057-0.01,0.111-0.047,0.166-0.071C19.647,10.956,20.044,10.956,20.441,10.956z"/>
	<path fill-rule="evenodd" clip-rule="evenodd" fill="#662F90" d="M33.755,10.956c0.02,0.015,0.037,0.038,0.059,0.044
		c0.738,0.199,0.738,0.199,0.588,0.935c-0.049,0.241-0.104,0.479-0.146,0.67c-0.479-0.025-0.938-0.112-1.379-0.059
		c-0.884,0.107-1.486,0.794-1.639,1.854c-0.094,0.657-0.096,1.327-0.138,1.979c-0.543-0.04-1.122-0.084-1.709-0.128
		c-0.322-1.998,0.472-4.804,3.009-5.236c0.033-0.005,0.061-0.039,0.092-0.059C32.911,10.956,33.333,10.956,33.755,10.956z"/>
	<path fill-rule="evenodd" clip-rule="evenodd" fill="#FFFFFF" d="M30.292,35.132c-0.199,0-0.379,0-0.606,0
		c0,0.236-0.001,0.457,0,0.678c0,3.792-0.017,7.584,0.013,11.376c0.011,1.376-1.181,2.113-2.208,1.778
		c-0.722-0.235-1.17-0.864-1.17-1.67c-0.001-6.555,0-13.111,0-19.668c0-0.148,0-0.296,0-0.444c-0.035-0.01-0.068-0.019-0.103-0.028
		c-0.141,0.484-0.312,0.962-0.422,1.454c-0.5,2.234-0.438,4.502-0.346,6.769c0.032,0.769-0.354,1.296-1.02,1.323
		c-0.691,0.028-1.139-0.436-1.162-1.197c-0.008-0.247-0.035-0.494-0.044-0.742c-0.075-2.207-0.056-4.41,0.419-6.581
		c0.244-1.118,0.597-2.197,1.309-3.121c0.7-0.908,1.585-1.41,2.771-1.383c1.474,0.033,2.951,0.048,4.423-0.003
		c1.475-0.053,2.477,0.639,3.203,1.833c0.734,1.208,1.038,2.557,1.229,3.938c0.283,2.058,0.263,4.126,0.15,6.193
		c-0.035,0.633-0.525,1.09-1.146,1.065c-0.62-0.025-1.06-0.52-1.049-1.16c0.02-1.338,0.068-2.677,0.033-4.013
		c-0.035-1.338-0.205-2.664-0.65-3.939c-0.048-0.139-0.105-0.274-0.236-0.411c0,0.135,0,0.27,0,0.403c0,6.569,0,13.138-0.002,19.706
		c0,1.037-0.74,1.773-1.748,1.751c-0.904-0.02-1.599-0.733-1.612-1.697c-0.017-1.251-0.008-2.502-0.008-3.754
		c0-2.702,0.002-5.403,0.002-8.105C30.311,35.372,30.299,35.263,30.292,35.132z"/>
	<path fill-rule="evenodd" clip-rule="evenodd" fill="#FFFFFF" d="M29.981,22.927c-1.696-0.016-3.074-1.409-3.055-3.09
		c0.019-1.693,1.421-3.065,3.106-3.039c1.696,0.026,3.054,1.415,3.04,3.109C33.058,21.564,31.647,22.942,29.981,22.927z"/>
	<path fill-rule="evenodd" clip-rule="evenodd" fill="#662F90" d="M25.398,19.87c-0.481,0-0.949,0-1.441,0c0-2.942,0-5.871,0-8.838
		c0.468,0,0.925-0.019,1.378,0.015c0.107,0.007,0.247,0.172,0.295,0.295c0.692,1.772,1.372,3.551,2.056,5.327
		c0.02,0.053,0.049,0.103,0.094,0.195c-0.052-1.958-0.103-3.868-0.153-5.805c0.55,0,1.038,0,1.577,0c0,0.296,0,0.589,0,0.883
		c-0.001,1.363,0.002,2.727-0.01,4.09c-0.001,0.12-0.072,0.321-0.154,0.347c-0.911,0.286-1.621,0.828-2.185,1.721
		c-0.516-1.379-1.002-2.676-1.457-3.892C25.398,16.025,25.398,17.931,25.398,19.87z"/>
	<path fill-rule="evenodd" clip-rule="evenodd" fill="#662F90" d="M23.315,19.866c-0.569,0-1.11,0-1.673,0c0-2.937,0-5.855,0-8.804
		c0.545,0,1.095,0,1.673,0C23.315,13.98,23.315,16.908,23.315,19.866z"/>
	<path fill-rule="evenodd" clip-rule="evenodd" fill="#662F90" d="M32.3,14.923c0.801,0,1.564,0,2.385,0c0,0.705,0,1.394,0,2.082
		c-0.001,0.754-0.02,1.51,0.004,2.265c0.01,0.305-0.081,0.463-0.383,0.507c-0.218,0.033-0.432,0.083-0.581,0.113
		c-0.214-0.638-0.458-1.229-0.603-1.843c-0.088-0.377-0.027-0.787-0.031-1.183c-0.002-0.16-0.001-0.32-0.001-0.531
		c-0.27,0-0.52,0-0.79,0C32.3,15.842,32.3,15.402,32.3,14.923z"/>
</g>
</svg>
